<?xml version="1.0" encoding="UTF-8" standalone="no"?>
<svg
        id="svg8"
        version="1.1"
        viewBox="0 0 104.12487 17.260799"
        height="17.260799mm"
        width="104.12487mm"
>
  <defs
          id="defs2"/>
  <g
          transform="translate(-57.871879,-44.915296)"
          id="layer1">
    <g
            id="text817"
            style="font-style:normal;font-variant:normal;font-weight:normal;font-stretch:normal;font-size:6.3499999px;line-height:1.25;font-family:sans-serif;-inkscape-font-specification:'sans-serif, Normal';font-variant-ligatures:normal;font-variant-caps:normal;font-variant-numeric:normal;font-feature-settings:normal;text-align:start;letter-spacing:0px;word-spacing:0px;writing-mode:lr-tb;text-anchor:start;fill:#ffff00;fill-opacity:1;stroke:none;stroke-width:0.26458332"
            aria-label="BITCLASS">
      <path
              id="path819"
              style="font-style:normal;font-variant:normal;font-weight:bold;font-stretch:normal;font-size:25.39999962px;font-family:'Source Sans Pro';-inkscape-font-specification:'Source Sans Pro, Bold';font-variant-ligatures:normal;font-variant-caps:normal;font-variant-numeric:normal;font-feature-settings:normal;text-align:start;writing-mode:lr-tb;text-anchor:start;fill:#ffffff;fill-opacity:1;stroke:#000000;stroke-width:0.69999999;stroke-miterlimit:4;stroke-dasharray:none;stroke-opacity:1;paint-order:markers stroke fill"
              d="m 58.221879,61.826096 v -16.5608 h 5.6642 q 1.2954,0 2.3876,0.2032 1.1176,0.1778 1.9304,0.6604 0.8382,0.4826 1.2954,1.27 0.4826,0.7874 0.4826,1.9812 0,0.5588 -0.1524,1.1176 -0.1524,0.5588 -0.4318,1.0414 -0.2794,0.4826 -0.6858,0.8636 -0.381,0.381 -0.889,0.5588 v 0.1016 q 0.635,0.1524 1.1684,0.4826 0.5334,0.3048 0.9398,0.7874 0.4064,0.4826 0.635,1.143 0.2286,0.635 0.2286,1.4732 0,1.27 -0.508,2.1844 -0.4826,0.9144 -1.3716,1.524 -0.8636,0.5842 -2.032,0.889 -1.1684,0.2794 -2.5146,0.2794 z m 3.7338,-9.9314 h 1.7526 q 1.3716,0 1.9812,-0.5334 0.635,-0.5334 0.635,-1.4224 0,-0.9652 -0.635,-1.3716 -0.635,-0.4064 -1.9558,-0.4064 h -1.778 z m 0,7.0358 h 2.1082 q 3.0734,0 3.0734,-2.2352 0,-1.0922 -0.762,-1.5494 -0.762,-0.4826 -2.3114,-0.4826 h -2.1082 z"/>
      <path
              id="path821"
              style="font-style:normal;font-variant:normal;font-weight:bold;font-stretch:normal;font-size:25.39999962px;font-family:'Source Sans Pro';-inkscape-font-specification:'Source Sans Pro, Bold';font-variant-ligatures:normal;font-variant-caps:normal;font-variant-numeric:normal;font-feature-settings:normal;text-align:start;writing-mode:lr-tb;text-anchor:start;fill:#ffffff;fill-opacity:1;stroke:#000000;stroke-width:0.69999999;stroke-miterlimit:4;stroke-dasharray:none;stroke-opacity:1;paint-order:markers stroke fill"
              d="m 73.600785,61.826096 v -16.5608 h 3.7338 v 16.5608 z"/>
      <path
              id="path823"
              style="font-style:normal;font-variant:normal;font-weight:bold;font-stretch:normal;font-size:25.39999962px;font-family:'Source Sans Pro';-inkscape-font-specification:'Source Sans Pro, Bold';font-variant-ligatures:normal;font-variant-caps:normal;font-variant-numeric:normal;font-feature-settings:normal;text-align:start;writing-mode:lr-tb;text-anchor:start;fill:#ffffff;fill-opacity:1;stroke:#000000;stroke-width:0.69999999;stroke-miterlimit:4;stroke-dasharray:none;stroke-opacity:1;paint-order:markers stroke fill"
              d="m 84.466428,61.826096 v -13.4112 h -4.5466 v -3.1496 h 12.8524 v 3.1496 h -4.5466 v 13.4112 z"/>
      <path
              id="path825"
              style="font-style:normal;font-variant:normal;font-weight:bold;font-stretch:normal;font-size:25.39999962px;font-family:'Source Sans Pro';-inkscape-font-specification:'Source Sans Pro, Bold';font-variant-ligatures:normal;font-variant-caps:normal;font-variant-numeric:normal;font-feature-settings:normal;text-align:start;writing-mode:lr-tb;text-anchor:start;stroke-width:0.26458332"
              d="m 101.59357,62.130896 q -1.5748,0 -2.971801,-0.5334 -1.396999,-0.5588 -2.463799,-1.6256 -1.0414,-1.0668 -1.651,-2.6416 -0.6096,-1.6002 -0.6096,-3.683 0,-2.0574 0.635,-3.6576 0.635,-1.6256 1.7018,-2.7432 1.0668,-1.1176 2.489199,-1.7018 1.422401,-0.5842 2.997201,-0.5842 1.6002,0 2.8702,0.6604 1.27,0.635 2.1082,1.4986 l -1.9812,2.3876 q -0.635,-0.5842 -1.3462,-0.9398 -0.6858,-0.381 -1.5748,-0.381 -0.8382,0 -1.6002,0.381 -0.736601,0.3556 -1.295401,1.0414 -0.5334,0.6858 -0.8636,1.6764 -0.3048,0.9906 -0.3048,2.2352 0,2.5654 1.0922,3.9878 1.0922,1.397 2.921001,1.397 1.016,0 1.8034,-0.4318 0.8128,-0.4572 1.4224,-1.1176 l 1.9812,2.3368 q -2.0828,2.4384 -5.3594,2.4384 z"/>
      <path
              id="path827"
              style="font-style:normal;font-variant:normal;font-weight:bold;font-stretch:normal;font-size:25.39999962px;font-family:'Source Sans Pro';-inkscape-font-specification:'Source Sans Pro, Bold';font-variant-ligatures:normal;font-variant-caps:normal;font-variant-numeric:normal;font-feature-settings:normal;text-align:start;writing-mode:lr-tb;text-anchor:start;stroke-width:0.26458332"
              d="m 109.46836,61.826096 v -16.5608 h 3.7338 v 13.4112 h 6.5532 v 3.1496 z"/>
      <path
              id="path829"
              style="font-style:normal;font-variant:normal;font-weight:bold;font-stretch:normal;font-size:25.39999962px;font-family:'Source Sans Pro';-inkscape-font-specification:'Source Sans Pro, Bold';font-variant-ligatures:normal;font-variant-caps:normal;font-variant-numeric:normal;font-feature-settings:normal;text-align:start;writing-mode:lr-tb;text-anchor:start;stroke-width:0.26458332"
              d="m 126.35222,53.444096 -0.4064,1.524 h 3.5306 l -0.381,-1.524 q -0.3556,-1.2446 -0.6858,-2.6416 -0.3302,-1.397 -0.6604,-2.6924 h -0.1016 q -0.3048,1.3208 -0.635,2.7178 -0.3048,1.3716 -0.6604,2.6162 z m -5.9944,8.382 5.1816,-16.5608 h 4.4958 l 5.1816,16.5608 h -3.9624 l -1.016,-3.937 h -5.0546 l -1.016,3.937 z"/>
      <path
              id="path831"
              style="font-style:normal;font-variant:normal;font-weight:bold;font-stretch:normal;font-size:25.39999962px;font-family:'Source Sans Pro';-inkscape-font-specification:'Source Sans Pro, Bold';font-variant-ligatures:normal;font-variant-caps:normal;font-variant-numeric:normal;font-feature-settings:normal;text-align:start;writing-mode:lr-tb;text-anchor:start;stroke-width:0.26458332"
              d="m 142.05616,62.130896 q -1.6256,0 -3.2512,-0.5842 -1.6002,-0.6096 -2.8702,-1.8034 l 2.1336,-2.5654 q 0.889,0.762 1.9558,1.2446 1.0922,0.4826 2.1336,0.4826 1.1684,0 1.7272,-0.4318 0.5842,-0.4318 0.5842,-1.1684 0,-0.381 -0.1778,-0.6604 -0.1524,-0.2794 -0.4826,-0.4826 -0.3048,-0.2286 -0.762,-0.4064 -0.4318,-0.2032 -0.9652,-0.4318 l -2.159,-0.9144 q -0.635,-0.254 -1.2446,-0.6604 -0.5842,-0.4064 -1.0668,-0.9398 -0.4572,-0.5588 -0.7366,-1.27 -0.2794,-0.7366 -0.2794,-1.651 0,-1.016 0.4318,-1.905 0.4318,-0.9144 1.2192,-1.5748 0.7874,-0.6858 1.8542,-1.0668 1.0922,-0.381 2.3876,-0.381 1.4478,0 2.8448,0.5588 1.4224,0.5588 2.4892,1.6256 l -1.905,2.3622 q -0.8128,-0.635 -1.6256,-0.9652 -0.8128,-0.3556 -1.8034,-0.3556 -0.9652,0 -1.5494,0.4064 -0.5588,0.381 -0.5588,1.0922 0,0.381 0.1778,0.6604 0.2032,0.254 0.5334,0.4826 0.3556,0.2032 0.8128,0.4064 0.4572,0.1778 0.9906,0.4064 l 2.1336,0.8636 q 1.524,0.6096 2.3876,1.6764 0.889,1.0668 0.889,2.8194 0,1.0414 -0.4318,1.9812 -0.4064,0.9144 -1.2192,1.6256 -0.7874,0.6858 -1.9558,1.1176 -1.1684,0.4064 -2.6416,0.4064 z"/>
      <path
              id="path833"
              style="font-style:normal;font-variant:normal;font-weight:bold;font-stretch:normal;font-size:25.39999962px;font-family:'Source Sans Pro';-inkscape-font-specification:'Source Sans Pro, Bold';font-variant-ligatures:normal;font-variant-caps:normal;font-variant-numeric:normal;font-feature-settings:normal;text-align:start;writing-mode:lr-tb;text-anchor:start;stroke-width:0.26458332"
              d="m 155.74835,62.130896 q -1.6256,0 -3.2512,-0.5842 -1.6002,-0.6096 -2.8702,-1.8034 l 2.1336,-2.5654 q 0.889,0.762 1.9558,1.2446 1.0922,0.4826 2.1336,0.4826 1.1684,0 1.7272,-0.4318 0.5842,-0.4318 0.5842,-1.1684 0,-0.381 -0.1778,-0.6604 -0.1524,-0.2794 -0.4826,-0.4826 -0.3048,-0.2286 -0.762,-0.4064 -0.4318,-0.2032 -0.9652,-0.4318 l -2.159,-0.9144 q -0.635,-0.254 -1.2446,-0.6604 -0.5842,-0.4064 -1.0668,-0.9398 -0.4572,-0.5588 -0.7366,-1.27 -0.2794,-0.7366 -0.2794,-1.651 0,-1.016 0.4318,-1.905 0.4318,-0.9144 1.2192,-1.5748 0.7874,-0.6858 1.8542,-1.0668 1.0922,-0.381 2.3876,-0.381 1.4478,0 2.8448,0.5588 1.4224,0.5588 2.4892,1.6256 l -1.905,2.3622 q -0.8128,-0.635 -1.6256,-0.9652 -0.8128,-0.3556 -1.8034,-0.3556 -0.9652,0 -1.5494,0.4064 -0.5588,0.381 -0.5588,1.0922 0,0.381 0.1778,0.6604 0.2032,0.254 0.5334,0.4826 0.3556,0.2032 0.8128,0.4064 0.4572,0.1778 0.9906,0.4064 l 2.1336,0.8636 q 1.524,0.6096 2.3876,1.6764 0.889,1.0668 0.889,2.8194 0,1.0414 -0.4318,1.9812 -0.4064,0.9144 -1.2192,1.6256 -0.7874,0.6858 -1.9558,1.1176 -1.1684,0.4064 -2.6416,0.4064 z"/>
    </g>
  </g>
</svg>
